# xmcd
#
# Track frame offsets: 
#        150
#        17292
#        38265
#        54140
#        66892
#        82530
#        101915
#        116760
#        128262
#        149055
#        168760
#        186640
#        211010
#        225475
#        245945
#        265092
#
# Disc length: 3735 seconds
#
# Revision: 1
# Processed by: cddbd v1.5.2PL0 Copyright (c) Steve Scherf et al.
# Submitted via: ExactAudioCopyFreeDBPlugin 1.0
#
DISCID=c90e9510
DTITLE=Varios Artistas - Feelings of Love - Keep on loving you
DYEAR=1998
DGENRE=Pop
TTITLE0=Cyndi Lauper - True colors
TTITLE1=Cock Robin - When your heart is weak
TTITLE2=Roy Orbison - You got it
TTITLE3=Bobby Vinton - Sealed with a kiss
TTITLE4=Smokie - Living next door to Alice
TTITLE5=Kool and The Gang - Joanna
TTITLE6=Robin Beck - First time
TTITLE7=Thom Pace - Maybe
TTITLE8=Sophie B. Hawkins - California here I come
TTITLE9=Paul Young - Don't dream it's over
TTITLE10=Sally Natasha Oldfield - Natasha
TTITLE11=Phil Carmen - Jessica
TTITLE12=Barbara Dickson - Run like the wind
TTITLE13=Ten Sharp - You
TTITLE14=Debarge - Love me in a special way
TTITLE15=Reo Speedwagon - Keep on loving you
EXTD=
EXTT0=
EXTT1=
EXTT2=
EXTT3=
EXTT4=
EXTT5=
EXTT6=
EXTT7=
EXTT8=
EXTT9=
EXTT10=
EXTT11=
EXTT12=
EXTT13=
EXTT14=
EXTT15=
PLAYORDER=
